<svg width="100" height="64" viewBox="0 0 100 64" fill="none" xmlns="http://www.w3.org/2000/svg">
<g clip-path="url(#clip0_17_1314)">
<path d="M8.37199 54.5436V56.7518H5.33883V63.792H3.03316V56.7518H0V54.5436H8.37199Z" fill="#131316"/>
<path d="M8.45581 59.1966C8.45581 56.5455 10.3712 54.3374 13.4181 54.3374C16.4649 54.3374 18.3803 56.5455 18.3803 59.1966C18.3803 61.8477 16.4649 64.0017 13.4181 64.0017C10.3712 64.0017 8.45581 61.8206 8.45581 59.1966ZM16.0319 59.1678C16.0319 57.773 15.0682 56.5725 13.4181 56.5725C11.768 56.5725 10.8043 57.773 10.8043 59.1678C10.8043 60.5627 11.7543 61.7631 13.4181 61.7631C15.0819 61.7631 16.0319 60.5475 16.0319 59.1678Z" fill="#131316"/>
<path d="M27.3103 57.8017C27.3103 59.7478 25.8143 61.0868 24.0119 61.0868H21.4819V63.792H19.1763V54.5419H24.0119C25.8571 54.5419 27.3103 55.9233 27.3103 57.8V57.8017ZM23.8013 58.9328C24.4158 58.9328 24.9619 58.5186 24.9619 57.8152C24.9619 57.166 24.4021 56.7518 23.8013 56.7518H21.4819V58.9328H23.8013Z" fill="#131316"/>
<path d="M28.2039 63.7937V54.5436H34.9685V56.7518H30.5095V63.792H28.2039V63.7937Z" fill="#131316"/>
<path d="M34.9822 59.1966C34.9822 56.5455 36.8976 54.3374 39.9444 54.3374C42.9913 54.3374 44.9067 56.5455 44.9067 59.1966C44.9067 61.8477 42.9913 64.0017 39.9444 64.0017C36.8976 64.0017 34.9822 61.8206 34.9822 59.1966ZM42.5582 59.1678C42.5582 57.773 41.5945 56.5725 39.9444 56.5725C38.2943 56.5725 37.3306 57.773 37.3306 59.1678C37.3306 60.5627 38.2806 61.7631 39.9444 61.7631C41.6082 61.7631 42.5582 60.5475 42.5582 59.1678Z" fill="#131316"/>
<path d="M51.923 54.5436H54.2287V63.7937H51.923V60.2043H48.01V63.7937H45.7043V54.5436H48.01V58.0097H51.923V54.5436Z" fill="#131316"/>
<path d="M60.1547 57.2911C61.9863 57.2911 63.4532 58.5896 63.4532 60.5357C63.4532 62.4817 62 63.7937 60.1547 63.7937H55.7385V54.5436H58.0442V57.2911H60.1547ZM59.9442 61.5839C60.7128 61.5839 61.1047 61.0598 61.1047 60.5204C61.1047 59.9811 60.7128 59.457 59.9442 59.457H58.0442V61.5822H59.9442V61.5839ZM64.2218 54.5436H66.5275V63.7937H64.2218V54.5436Z" fill="#131316"/>
<path d="M76.8405 59.0157C77.6929 59.2507 78.405 59.9963 78.405 61.1409C78.405 62.715 77.1058 63.792 75.5396 63.792H70.9128V61.5839H75.1065C75.6937 61.5839 76.0018 61.239 76.0018 60.9076C76.0018 60.5762 75.7074 60.2448 75.1065 60.2448H72.0323V58.0638H75.0518C75.5961 58.0638 75.8905 57.7189 75.8905 57.3875C75.8905 57.0561 75.6252 56.7382 75.0518 56.7382H70.9146V54.5436H75.5122C77.0784 54.5436 78.2937 55.4549 78.2937 56.9327C78.2937 57.844 77.7477 58.6589 76.8405 58.9616V59.0174V59.0157Z" fill="#131316"/>
<path d="M86.0102 63.7937L85.3529 62.081H81.7189L81.0753 63.7937H78.5591L82.2906 54.5436H84.877L88.6222 63.7937H86.0085H86.0102ZM82.4601 60.1485H84.6117L83.5213 57.3317L82.4584 60.1485H82.4601Z" fill="#131316"/>
<path d="M100 63.7937H97.6944V57.9133L95.2758 63.7937H93.9475L91.5288 57.9133V63.7937H89.2231V54.5436H92.4241L94.6185 60.0386L96.8266 54.5436H100V63.7937Z" fill="#131316"/>
<path d="M7.95433 49.9194H92.0474C92.1758 49.0504 92.2785 48.1644 92.3521 47.2633C92.4462 46.1271 92.4941 44.9723 92.4941 43.8006C92.4941 32.2105 87.7373 21.716 80.0483 14.1212C72.3593 6.52461 61.7346 1.8277 50.0009 1.8277C38.2671 1.8277 27.6425 6.52461 19.9534 14.1212C12.2644 21.716 7.50757 32.2105 7.50757 43.8006C7.50757 44.9723 7.5555 46.1271 7.64965 47.2633C7.72496 48.1627 7.82595 49.0487 7.95433 49.9194ZM0 49.9194H6.09028C5.97046 49.0842 5.87631 48.2456 5.80613 47.407C5.70685 46.2116 5.65721 45.0078 5.65721 43.8006C5.65721 31.705 10.6212 20.7557 18.6457 12.8294C26.6702 4.90318 37.7553 0 49.9991 0C62.243 0 73.3298 4.90318 81.3543 12.8294C89.3788 20.7557 94.3428 31.705 94.3428 43.8006C94.3428 45.0078 94.2914 46.2116 94.1939 47.407C94.1237 48.2456 94.0295 49.0842 93.9097 49.9194H100V51.7471H0V49.9194Z" fill="#131316"/>
<mask id="mask0_17_1314" style="mask-type:luminance" maskUnits="userSpaceOnUse" x="7" y="1" width="86" height="49">
<path d="M7.64793 47.2633C7.72325 48.1627 7.82424 49.0487 7.95262 49.9194H92.0457C92.174 49.0487 92.2767 48.1644 92.3503 47.2633C92.4445 46.1271 92.4924 44.9723 92.4924 43.8006C92.4924 32.2105 87.7356 21.716 80.0466 14.1195C72.3575 6.52461 61.7329 1.82601 49.9991 1.82601C38.2653 1.82601 27.6407 6.52292 19.9517 14.1195C12.2627 21.716 7.50586 32.2088 7.50586 43.8006C7.50586 44.9723 7.55379 46.1271 7.64793 47.2633Z" fill="white"/>
</mask>
<g mask="url(#mask0_17_1314)">
<path d="M7.50685 1.41794L7.26929 49.9183L92.491 50.3338L92.7286 1.83347L7.50685 1.41794Z" fill="white"/>
</g>
<path fill-rule="evenodd" clip-rule="evenodd" d="M46.1512 18.5459L45.7336 3.14311L48.1574 16.1027L46.1512 18.5459ZM26.3587 36.9903L11.1707 30.7886L27.1615 34.5911L12.7027 26.8474L28.2039 32.2798L14.6437 23.0855L29.4843 30.0886L16.97 19.5451L30.9889 28.0428L19.6591 16.265L32.7023 26.1627L22.6819 13.2792L34.6057 24.4702L26.0027 10.623L36.6769 22.9841L29.587 8.32526L38.8953 21.7194L33.3956 6.40795L41.2352 20.6914L37.3856 4.89642L43.671 19.9103L41.5142 3.80419L45.9869 18.7487L37.3993 29.2094L32.9419 27.0081L26.3638 36.9903H26.3587ZM24.9055 39.1967L10.0649 34.865L26.357 36.9936L24.9055 39.1967ZM23.3358 41.5773L9.39562 39.0344L24.7428 39.4402L23.3341 41.5773H23.3358ZM21.6018 44.2081L9.17139 43.2494L22.9318 42.1893L21.6001 44.2081H21.6018ZM19.6351 47.1939L13.8683 47.3461L13.6201 47.2649L13.5568 47.3546L9.39733 47.4645L20.8316 45.3781L19.6351 47.1922V47.1939ZM83.648 46.1964L90.6027 47.4661L84.9164 47.3157L83.648 46.1981V46.1964ZM79.6803 42.3905L90.827 43.2494L81.1506 43.995L80.1955 43.153L79.6803 42.3888V42.3905ZM77.6468 39.3776L90.6027 39.0344L78.8604 41.1766L77.6468 39.3776ZM75.8443 36.7062L89.9351 34.865L77.1264 38.6049L75.8443 36.7062ZM74.1977 34.2665L88.8294 30.7869L75.5191 36.2227L74.1977 34.2648V34.2665ZM72.6537 31.9789L87.2974 26.8474L73.9974 33.9706L72.6537 31.9806V31.9789ZM51.3566 18.7065L54.2665 3.14311L53.8248 19.3845L58.4876 3.80419L56.3308 19.9103L62.6145 4.89642L58.7649 20.6914L66.6045 6.40795L61.1048 21.7194L70.4131 8.32526L63.3231 22.9841L73.9974 10.623L65.3943 24.4702L77.3181 13.2792L67.2977 26.1627L80.341 16.265L69.0112 28.0428L83.0301 19.5451L70.5158 30.0886L85.3563 23.0855L72.5236 31.7861L72.171 31.2637L67.8609 33.6121L62.5118 25.6859L56.2709 24.0712L51.3583 18.7065H51.3566ZM49.9992 2.92331L51.2367 18.5763L48.9584 16.0892L49.9992 2.92331Z" fill="#FF4405"/>
<path fill-rule="evenodd" clip-rule="evenodd" d="M48.5475 19.8883L40.3741 29.7961L43.1984 31.1183L39.1862 35.6309L47.9553 28.4012L45.8756 27.8873L52.1918 23.777L48.5492 19.8883H48.5475ZM51.7433 31.5545C51.7433 31.5545 54.5659 27.2245 55.0127 27.1518C55.4577 27.0791 60.586 27.1518 60.586 27.1518C60.586 27.1518 72.5492 44.252 71.6574 43.8851C70.7656 43.5182 63.1878 41.3896 63.1878 40.8029C63.1878 40.2162 63.2614 34.8582 63.2614 34.8582L50.035 44.0322L59.4717 33.8302L58.431 29.72L51.7433 31.5545ZM70.9145 35.6664L72.6228 34.5657L79.3104 44.8404L70.9145 35.6664ZM24.3987 44.6933C24.3987 44.3264 33.6111 30.0142 33.6111 30.0142L38.813 32.0702L33.315 39.337L34.1315 33.8319L24.3987 44.6933Z" fill="#FF4405"/>
<path fill-rule="evenodd" clip-rule="evenodd" d="M33.1387 49.4984L33.2568 50.8324H10.2154C10.1726 50.6109 10.1333 50.3878 10.0939 50.1646C10.7649 49.911 11.4735 49.5762 11.7217 49.2482L10.5116 49.3547L10.8847 48.9658C10.3712 49.1755 10.2873 49.3006 9.94669 49.2837C9.91416 49.0707 9.88164 48.8576 9.85083 48.6429C10.0819 48.4417 10.3267 48.2473 10.5116 48.0833C10.9138 47.7215 11.2835 47.4137 11.5968 47.0249L10.9087 47.505L10.8761 47.3698L10.758 46.986L11.8107 45.5387C11.0867 45.4677 11.4684 45.6824 10.8265 45.6621L12.8121 42.8352C12.6341 42.8774 12.3636 43.0516 12.1428 42.9349C12.0607 42.6069 12.302 42.3854 12.5194 42.0642C12.6991 41.7971 12.9319 41.4707 13.0689 41.1935C13.4437 41.5299 13.8083 42.3415 14.0942 42.8115C14.0514 42.8419 14.0274 42.825 13.9521 42.8233C13.2212 42.8098 13.7467 42.7625 13.567 42.9349C13.9726 43.4083 14.3492 44.1692 14.7686 44.7001L14.2311 44.8303C13.8785 44.8708 14.1404 44.8878 13.1972 44.2909C13.442 44.8438 14.3989 45.067 15.4053 46.3739C15.8333 45.9462 16.4187 45.4998 16.8124 45.1481C17.3944 44.6274 17.9267 44.1844 18.3769 43.6231L17.3875 44.3146L17.3396 44.1185L17.1684 43.5656L18.6867 41.4775C17.6443 41.3761 18.1937 41.6855 17.2677 41.6567L20.1297 37.5803C19.8729 37.6395 19.4844 37.8914 19.1643 37.724C19.0462 37.2523 19.3971 36.9311 19.7086 36.4678C19.9688 36.0806 20.3043 35.6123 20.5028 35.2116C21.042 35.6968 21.5675 36.8668 21.98 37.5448C21.9184 37.5905 21.8842 37.5651 21.7763 37.5617C20.7202 37.5431 21.4802 37.4755 21.22 37.724C21.8037 38.4071 22.348 39.5027 22.9523 40.2686L22.1752 40.458C21.6685 40.5155 22.0485 40.5391 20.686 39.6785C21.0882 40.5916 22.8359 40.8807 24.4997 43.5977L24.0649 43.4168L21.6103 43.0736C22.093 44.6257 23.8817 45.8109 24.9259 46.8693C23.9759 47.3326 24.575 46.3486 23.0327 46.6901C23.3562 47.336 23.0071 46.9843 23.4162 47.4966L24.7017 48.5009L24.6606 48.369L25.525 47.1804C24.931 47.1229 25.2443 47.2988 24.7171 47.2819L26.3466 44.9605C26.2011 44.9943 25.9803 45.138 25.7972 45.0433C25.7304 44.7728 25.929 44.5919 26.1053 44.3264C26.2542 44.1066 26.4459 43.8395 26.5589 43.6129C26.8653 43.8885 27.1648 44.5547 27.401 44.9402C27.3651 44.9655 27.3462 44.952 27.2846 44.9503C26.6821 44.9402 27.1152 44.9013 26.968 45.0433C27.3 45.4305 27.6099 46.0561 27.9539 46.4906L27.5106 46.5988C27.223 46.6326 27.4387 46.6444 26.6633 46.1541C26.8772 46.6394 27.7571 46.8169 28.642 48.0934L28.5753 47.8719L29.5064 46.592C28.8663 46.5278 29.2035 46.7188 28.6352 46.7019L30.3914 44.1979C30.2339 44.2351 29.996 44.3907 29.7991 44.2875C29.7272 43.9967 29.9412 43.8006 30.1329 43.5149C30.2921 43.2782 30.4992 42.9907 30.6208 42.7456C30.9511 43.0431 31.2746 43.7617 31.528 44.1776C31.4903 44.2047 31.4681 44.1895 31.403 44.1878C30.7543 44.1759 31.2199 44.1337 31.0607 44.2875C31.4201 44.7068 31.7522 45.3798 32.1254 45.8498L31.6478 45.9648C31.3363 46.0003 31.569 46.0155 30.7337 45.4863C30.9734 46.0307 31.9901 46.215 32.9829 47.7468C33.012 47.7942 33.0428 47.8432 33.0736 47.8922L32.9915 47.8584L32.8066 47.7823L31.3003 47.571C31.5588 48.4028 32.4317 49.0639 33.0754 49.6523L33.0599 49.6066L33.1387 49.4984Z" fill="#131316"/>
<path fill-rule="evenodd" clip-rule="evenodd" d="M90.2655 48.8424L89.3685 48.7156C89.4935 49.118 89.7862 49.4697 90.1165 49.7926C90.0583 50.1409 89.995 50.4875 89.93 50.8324H66.3254L66.7294 47.0164C67.1984 46.5971 67.6263 46.242 67.9892 45.7889L67.1916 46.3452L67.1556 46.1896L67.017 45.7433L68.2391 44.0627C67.3987 43.9815 67.842 44.23 67.0957 44.2064L69.3997 40.9263C69.1943 40.9737 68.881 41.1782 68.6243 41.043C68.5284 40.6626 68.8108 40.4039 69.0608 40.0302C69.2713 39.7208 69.54 39.3421 69.6992 39.0208C70.134 39.4114 70.5568 40.3532 70.8889 40.8993C70.8392 40.9348 70.8118 40.9145 70.7245 40.9111C69.8755 40.8976 70.4866 40.8418 70.2778 41.043C70.7485 41.5908 71.185 42.4734 71.6711 43.0905L71.0463 43.2426C70.639 43.29 70.9436 43.3069 69.8481 42.6154C70.1717 43.3509 71.5787 43.5842 72.9155 45.7703L72.5663 45.6249L70.591 45.3459C70.781 45.9563 71.2192 46.4957 71.719 46.986C72.0272 46.7155 72.3609 46.4517 72.6091 46.2302C73.1244 45.7686 73.5985 45.3764 73.9973 44.8776L73.1175 45.4897L73.0781 45.3172L72.9258 44.8269L74.2712 42.9755C73.3452 42.8842 73.8347 43.1598 73.0131 43.1344L75.5516 39.5179C75.3239 39.572 74.9799 39.7952 74.6957 39.6464C74.5913 39.2271 74.9011 38.9431 75.1784 38.5305C75.4095 38.189 75.7073 37.7731 75.8819 37.418C76.3612 37.8492 76.8268 38.8873 77.1931 39.4875C77.1383 39.5264 77.1075 39.5044 77.0117 39.501C76.0754 39.4858 76.7498 39.4266 76.5187 39.6464C77.0356 40.2517 77.5183 41.2239 78.0541 41.9036L77.3677 42.071C76.9175 42.1234 77.253 42.142 76.0463 41.3794C76.3766 42.1335 77.7426 42.4091 79.1188 44.3822L79.7555 43.4743C79.5861 43.5149 79.3327 43.6806 79.1222 43.5707C79.0452 43.2596 79.2745 43.0499 79.4782 42.7456C79.6494 42.492 79.8702 42.1842 79.9986 41.9222C80.3529 42.24 80.6987 43.0076 80.9691 43.4523C80.9298 43.4827 80.9075 43.4658 80.8356 43.4624C80.1424 43.4506 80.6422 43.4067 80.471 43.5707C80.8545 44.017 81.2105 44.7373 81.6076 45.2394L81.0975 45.3628C80.7654 45.4017 81.0136 45.417 80.1201 44.8522C80.3769 45.4339 81.469 45.63 82.5302 47.2785L83.3279 46.1846C82.6535 46.1186 83.0095 46.3181 82.4121 46.2995L84.2573 43.6704C84.0913 43.7093 83.8414 43.8733 83.6343 43.7651C83.559 43.4608 83.7849 43.2528 83.9852 42.9535C84.1529 42.705 84.3703 42.4023 84.497 42.1454C84.8445 42.4581 85.1834 43.2122 85.4504 43.6484C85.411 43.6772 85.3888 43.662 85.3186 43.6586C84.6373 43.6467 85.1286 43.6045 84.9609 43.7651C85.3357 44.2047 85.6866 44.9114 86.0769 45.4051L85.5771 45.5269C85.2501 45.564 85.4932 45.5776 84.6168 45.0247C84.8753 45.6131 86.0016 45.7991 87.0748 47.5507L86.7941 47.434L85.2108 47.2108C85.5 48.1424 86.5185 48.8678 87.1998 49.5153C87.3829 49.3513 87.5524 49.189 87.703 48.9997L87.1912 49.3564L87.169 49.255L87.08 48.9709L87.8622 47.8939C87.3247 47.8415 87.6072 48.0021 87.1296 47.9869L88.6051 45.8853C88.4733 45.9157 88.273 46.0459 88.1087 45.9597C88.0471 45.7162 88.2285 45.5505 88.3877 45.3121C88.5229 45.1143 88.6958 44.8708 88.7968 44.6646C89.0758 44.9148 89.3463 45.5184 89.5585 45.8684C89.5277 45.8904 89.5106 45.8785 89.4541 45.8751C88.9098 45.8667 89.3018 45.8312 89.1682 45.9597C89.4695 46.3114 89.7485 46.8761 90.0601 47.2717L89.6612 47.3698C89.3993 47.3985 89.5945 47.4104 88.8927 46.9674C89.0587 47.3444 89.6681 47.5152 90.3442 48.2845C90.3185 48.4704 90.2928 48.6564 90.2655 48.8424Z" fill="#131316"/>
<path fill-rule="evenodd" clip-rule="evenodd" d="M46.8256 48.741C46.9352 48.905 46.9198 49.5525 46.877 49.7487C46.7178 49.676 46.752 49.4663 46.7538 49.2668C46.7572 49.0774 46.764 48.9134 46.8239 48.7393L46.8256 48.741ZM41.2044 49.7453L41.1838 49.8552C41.2318 49.8941 41.2968 49.9397 41.3396 49.9668C41.3567 50.1189 41.2865 50.1967 41.3002 50.3455C41.5365 50.4993 41.9747 50.4368 42.2571 50.3928C42.2622 50.2593 42.0106 50.0733 41.9028 50.009C41.8086 49.9532 41.7453 49.9279 41.6991 49.8264C41.6529 49.7284 41.6374 49.6033 41.6049 49.5356C41.5501 48.4603 41.3567 48.8796 41.7983 47.691C41.9028 47.4103 42.0174 47.1703 42.1732 46.9454C42.3564 46.6816 42.3838 46.6867 42.5772 46.521C42.6354 46.4703 42.6782 46.4229 42.7347 46.3891C42.7261 47.1077 42.4556 47.6149 42.4437 47.8043C42.4317 47.9937 42.6217 48.0833 42.7723 48.3267C42.899 48.5296 42.988 48.6716 43.0941 48.8847C43.202 48.9811 43.3064 49.2854 43.3663 49.419C43.4245 49.5491 43.4245 49.5847 43.4262 49.7419C43.4296 49.9752 43.4262 49.8974 43.57 50.0057C43.5922 50.3421 43.2602 50.4723 44.2855 50.4216L44.4857 50.3878C44.4447 50.1155 44.0475 50.0564 43.8747 49.7368C43.7343 49.4781 43.5974 49.1467 43.4313 48.8948C43.2379 48.227 42.9383 48.1171 43.2636 46.964C43.3492 46.6563 43.481 46.3993 43.57 46.0916C43.6744 45.7247 43.5529 45.3578 43.5101 45.001C43.7805 45.165 44.0595 45.5455 44.7065 45.8008C45.2937 46.0324 45.8329 46.0222 46.1838 45.6114C46.1615 45.865 45.9356 45.9428 45.8568 46.1271C45.951 46.0933 46.0006 46.0442 46.0982 45.9986C46.0126 46.2116 45.7712 46.237 45.7593 46.592C45.8123 46.4534 45.9544 46.308 46.1016 46.2809C45.8928 46.4568 45.7353 46.7324 45.8106 47.128C45.8517 47.0299 45.8602 46.9488 45.9116 46.8338C45.9047 47.1618 45.8842 47.2954 46.0605 47.527C46.0468 47.2785 46.0468 47.2751 46.1564 47.0942C46.1427 47.3427 46.1033 47.5067 46.1341 47.7756L46.2146 47.6082C46.218 47.8652 46.182 47.9396 46.2693 48.1729C46.2882 47.9429 46.2916 47.9074 46.3977 47.7417C46.3909 47.9193 46.3669 48.0156 46.432 48.1796C46.5056 48.3656 46.473 48.4028 46.4919 48.6209C46.5193 48.9422 46.509 49.2905 46.4696 49.5897C46.4525 49.7098 46.4166 49.796 46.3943 49.9042C46.3481 50.1257 46.4388 50.0564 46.5244 50.1494C46.6339 50.2677 46.5501 50.3015 46.509 50.4622C46.4628 50.6397 46.5535 50.6042 46.6151 50.7394C46.8051 50.7411 47.0037 50.7682 47.1748 50.7631C47.3614 50.7563 47.548 50.7327 47.738 50.7377L47.8339 50.6617C47.7654 50.5146 47.625 50.4097 47.5001 50.3303C47.2861 50.195 47.3152 50.1713 47.2399 49.8907C47.1543 49.5035 47.1286 49.0064 47.2673 48.6226C47.3511 48.3927 47.3084 48.2439 47.435 48.0833C47.5411 47.948 47.649 47.8466 47.6969 47.6318L47.7688 47.7772C47.8407 47.5439 48.0547 47.3579 48.1488 47.0519C48.2344 46.7746 48.195 46.3925 48.3337 46.1744C48.3422 46.4635 48.3696 46.6732 48.5014 46.8964C48.5819 47.0316 48.7753 47.314 48.8831 47.3698C48.8027 47.2649 48.7839 47.057 48.8078 46.8862C48.8352 46.6901 48.8985 46.6309 48.9482 46.4872C48.9396 46.7865 48.8506 46.9369 48.9516 47.2802C49.0149 47.4983 49.169 47.7248 49.3282 47.7925C49.2477 47.6538 49.1912 47.6149 49.1707 47.4137C49.1484 47.2108 49.2084 47.1094 49.2118 46.9877C49.2648 47.3596 49.3196 47.6251 49.5593 47.7908C49.4377 47.2869 49.4086 47.407 49.5456 46.8642C49.5507 47.3174 49.549 47.7637 49.9153 47.9193C49.7784 47.6268 49.7047 47.3072 49.9153 46.9961C49.9067 47.4391 49.9495 47.7857 50.2662 47.9429C50.1121 47.6031 50.0368 47.4103 50.2662 47.0333C50.2542 47.3884 50.2337 47.6487 50.5212 47.8364C50.3603 47.4103 50.4168 47.2362 50.6599 46.8254C50.6804 47.0265 50.6342 47.0705 50.6103 47.2294C50.7523 47.0739 50.8259 46.8845 50.9184 46.6597C50.9748 46.8693 50.9321 47.0807 50.8721 47.2582C50.9492 47.1855 51.0279 47.0654 51.081 46.9454C51.1101 46.8795 51.1255 46.8186 51.146 46.7476C51.1494 46.7324 51.17 46.6664 51.1734 46.6546C51.2145 46.5633 51.1854 46.6157 51.2282 46.5734C51.2521 46.7932 51.2213 46.8068 51.2008 46.9894C51.5294 46.6461 51.5431 46.2133 51.7006 45.9969L51.7126 46.3198C51.9659 46.0205 52.007 45.7466 52.0464 45.2817C52.0823 45.564 52.1234 45.5184 52.0926 45.8819C52.1884 45.7652 52.2775 45.5201 52.3134 45.3459C52.3819 45.0213 52.3048 44.979 52.2775 44.7271C52.322 44.7914 52.3853 44.81 52.4486 44.9114C52.5154 45.0179 52.5102 45.0974 52.5599 45.1904C52.654 44.7542 52.4692 44.6426 52.3048 44.4177C52.4966 44.4769 52.5428 44.5699 52.6506 44.6612C52.6164 44.4042 52.4093 44.1709 52.3648 43.9189C52.4829 43.9866 52.4897 44.0474 52.6266 44.1421C52.5924 43.8631 52.4589 43.6095 52.3425 43.3914C52.4452 43.4405 52.4161 43.4472 52.4983 43.5047C52.464 43.3069 52.2963 43.1733 52.1645 43.0719C52.1884 42.9789 52.1046 43.1311 52.1919 43.0516C52.286 42.9671 52.2141 43.0634 52.2261 43.011L52.0395 42.8724C52.0429 42.7726 52.0224 42.8842 52.0669 42.82C52.1371 42.7219 52.084 42.8774 52.0857 42.8031C51.6647 42.4564 51.7194 42.3364 52.298 42.0371C52.6284 41.8664 52.69 42.0557 53.0084 42.0354C53.0118 42.0304 53.0152 42.0202 53.0169 42.0169L53.0135 41.8968L53.1693 41.8579C53.1316 41.6584 53.0631 41.5418 52.9741 41.3913C52.7961 41.0937 52.3579 41.1072 52.0241 41.0937C51.7297 41.0819 51.7811 40.9804 51.5705 40.9196C51.7126 40.7792 51.7793 40.7792 51.6595 40.5138C51.6253 40.5848 51.6578 40.5949 51.6527 40.6998C51.6356 40.507 51.437 40.3853 51.2333 40.3718C51.3257 40.4157 51.3548 40.436 51.4199 40.4986C50.9646 40.392 51.0296 40.5121 50.6548 40.5104C50.7061 40.5763 50.6941 40.5425 50.7198 40.6186C50.4493 40.7082 50.4031 40.9398 50.0728 40.8367C50.1275 40.928 50.2063 40.9618 50.3021 41.0041C50.3073 41.0075 50.3193 41.0125 50.3244 41.0142L50.3672 41.0362C50.2217 41.1174 50.1703 41.114 50.0385 41.043C50.0813 41.1732 50.0967 41.0852 50.1652 41.2121C50.107 41.3084 50.1755 41.2459 50.0659 41.3034L49.9375 41.3591C50.0248 41.4031 50.0385 41.3879 50.1498 41.393C50.0711 41.4521 49.7955 41.6111 49.7612 41.6601L50.0591 41.6314C49.8965 41.7463 49.7441 41.841 49.7287 42.1251L49.7578 42.0896C49.8331 41.9999 49.9084 41.9036 50.0266 41.8731C49.9102 41.9239 49.7236 42.1893 49.7458 42.3837C49.8229 42.1944 49.8331 42.2722 49.9016 42.169C49.8691 42.3094 49.751 42.4142 49.751 42.6424C49.7784 42.5562 49.828 42.4903 49.9102 42.4497C49.8725 42.6999 49.8331 42.7456 49.8965 43.0279L49.9752 42.891L49.9358 43.3678L50.1104 43.1311L50.0711 43.5909L50.1464 43.4929C50.1464 43.4929 50.1584 43.4777 50.1618 43.4743L50.1943 43.4354C50.1857 43.5622 50.1686 43.6332 50.1087 43.7262C50.0848 43.7617 50.0591 43.7955 50.0437 43.826C49.9649 43.9849 50.0779 43.733 50.0266 43.8699C49.9649 44.039 49.3949 44.0035 49.0252 43.5622C48.8266 43.3255 48.753 42.9434 48.575 42.656C48.2173 42.076 47.738 41.9374 47.5668 41.2357C47.5275 41.0768 47.5497 41.1461 47.5993 41.1258C47.5856 41.0159 47.5463 40.8942 47.5583 40.8147C47.5651 40.7725 47.6096 40.7488 47.524 40.578C47.4076 40.3481 47.471 40.5002 47.4539 40.3684C47.4299 40.1807 47.0482 40.0133 46.9078 39.9964C46.6699 39.9677 46.3823 40.1249 46.283 40.3024C46.1427 40.5527 46.3156 41.1833 46.1786 41.6094C46.0314 42.0642 45.6138 42.1589 45.2697 41.8326C44.585 41.1799 45.078 40.5425 44.7613 40.1892C44.5285 39.9305 44.2495 39.9744 43.9551 40.0911C43.8267 40.1418 43.6624 40.3768 43.6213 40.5019C43.5802 40.6254 43.5289 40.6372 43.4964 40.7353C43.3851 41.07 43.5631 40.6473 43.5135 40.95C43.4673 41.234 43.5785 40.9246 43.5135 41.1224C43.4536 41.305 43.3543 41.469 43.3132 41.655C43.3594 41.5925 43.4074 41.5688 43.4399 41.5232C43.3902 41.6635 43.3132 41.8004 43.3149 41.983C43.3543 41.8951 43.3697 41.8072 43.4467 41.7565C43.2721 42.9552 42.3495 43.0279 41.6854 43.7566C41.3071 44.1709 41.4629 44.952 41.242 45.2005C41.0948 45.3679 40.8569 45.4203 40.8038 45.7145C40.732 46.1085 41.0572 46.1727 40.7217 46.4415C41.0948 46.4365 41.0846 46.2048 41.2318 45.9817C41.4629 45.6317 41.5347 45.8971 41.4902 45.2699C41.4731 45.0298 41.533 44.6172 41.5947 44.4008C41.6837 44.0863 41.7795 43.9781 42.002 43.8479C41.8839 44.1472 41.8223 44.2385 41.8411 44.6223C41.8839 45.4998 41.9695 46.1169 41.5056 46.8964C41.3687 47.1263 41.2232 47.2362 41.0965 47.4036C40.9647 47.5794 41.112 47.9243 41.1496 48.134C41.343 49.2313 41.1924 49.5593 41.2078 49.7436L41.2044 49.7453Z" fill="#131316"/>
<path fill-rule="evenodd" clip-rule="evenodd" d="M60.2471 49.7571C60.2556 49.7892 60.2625 49.8231 60.2642 49.8569C60.2727 50.0006 60.2282 50.031 60.3344 50.1443C60.3977 50.2119 60.4593 50.2424 60.5432 50.2982L60.7349 50.4774L60.7555 50.6194C60.6853 50.6279 60.1341 50.6194 59.9766 50.616C59.8739 50.6245 59.1601 50.6109 59.1601 50.6109C59.0146 50.3083 59.1738 50.4013 59.1738 50.1071C59.1738 49.8873 59.0335 49.9752 59.0335 49.752C59.0283 49.7182 59.0335 49.6726 59.0609 49.6049C59.1773 49.3057 59.3775 48.8898 59.2971 48.5415C59.256 48.3622 59.2543 48.1712 59.3809 48.0664L59.2166 48.0883L59.268 47.8483C59.268 47.7722 59.2782 47.8144 59.2457 47.7654L59.1841 47.9463C59.1036 47.7231 59.2063 47.5355 59.2868 47.3867C59.143 47.4712 59.1721 47.5 59.0882 47.6301C58.9804 47.3934 59.2235 47.1939 59.2988 47.1009C59.1772 47.1466 59.1636 47.172 58.9941 47.1804L59.0266 47.1466C59.0266 47.1466 59.0386 47.1348 59.042 47.1297C59.0454 47.1263 59.0523 47.1195 59.0574 47.1145C59.1242 47.0485 59.2098 46.9826 59.2457 46.8997L58.9616 46.9403C59.0677 46.8135 59.2354 46.8558 59.3672 46.57C58.7784 46.6411 58.003 46.4923 57.5203 46.2877C56.6473 45.9174 56.4197 45.5894 56.1509 45.4491C56.0825 45.586 56.002 46.2454 55.949 46.472C55.8634 46.8321 55.7538 47.0925 55.6477 47.4188C55.2489 48.6497 55.5672 49.0436 56.305 50.0851C56.382 50.1933 56.4077 50.2255 56.4522 50.2491H56.4539H56.4556L56.459 50.2508H56.4608L56.4625 50.2525H56.4642H56.4659H56.4676L56.4693 50.2542H56.471H56.4727H56.4745L56.4762 50.2559H56.4779L56.4796 50.2576H56.4813V50.2593H56.4847H56.4882L56.4916 50.261H56.4933H56.4967L56.5001 50.2626H56.5036H56.507H56.5104L56.5138 50.2643H56.5155H56.519V50.266H56.5207L56.5241 50.2677H56.5258H56.5309V50.2711H56.5344L56.5361 50.2745L56.5395 50.2762H56.5429L56.5498 50.2796L56.5583 50.2829L56.5652 50.2863H56.5686L56.5737 50.2897L56.5806 50.2931H56.5823L56.5891 50.2982H56.5908L56.5926 50.2998C56.6011 50.3049 56.6114 50.3083 56.6217 50.3134L56.6319 50.3184C56.7192 50.3607 56.8219 50.4469 56.9092 50.5061C56.9178 50.5416 56.9161 50.5754 56.887 50.5957C56.8031 50.6566 56.7209 50.6718 56.5446 50.6735C56.3666 50.6752 56.0311 50.6735 56.0311 50.6735L55.99 50.6059C56.0089 50.594 56.0191 50.5788 56.026 50.5551C56.026 50.5551 56.0277 50.5484 56.0294 50.5433V50.5399V50.5365V50.5332V50.5298V50.5281V50.5264V50.5247V50.5213V50.5196V50.518V50.5163V50.5129V50.5095V50.5078V50.5061V50.5027V50.4994V50.4977V50.496V50.4926V50.4892V50.4858V50.4824V50.4791V50.474V50.4706V50.4672V50.4638V50.4588V50.4554V50.452V50.4486V50.4452V50.4436V50.4402V50.4368V50.4334V50.43V50.4283V50.4233V50.4199V50.4165V50.4131V50.4081C56.0243 50.403 56.0209 50.3996 56.0157 50.3962C56.0157 50.3962 56.0106 50.3928 56.0089 50.3911C56.0072 50.3895 56.0054 50.3878 56.002 50.3861C56.0003 50.3861 55.9986 50.3827 55.9969 50.381C55.9969 50.381 55.9935 50.3776 55.9918 50.3759L55.9883 50.3725H55.9849V50.3692H55.9832L55.9798 50.3658C55.8685 50.2948 55.8035 50.3269 55.7487 50.1274C55.6922 49.916 55.6785 49.8721 55.5741 49.6895C55.4149 49.4156 55.2711 49.1789 55.0777 48.9642C54.9647 48.839 54.9082 48.7816 54.773 48.6581C54.381 48.3014 54.809 48.4569 54.9271 47.2751C54.7422 47.3799 54.4837 47.7553 54.3673 47.9852C54.0627 48.5888 54.0472 49.4021 54.2869 50.0479C54.3742 50.2846 54.4221 50.2491 54.6087 50.3658C54.797 50.4824 54.8055 50.5551 54.9373 50.6769C54.9305 50.7479 54.9373 50.7344 54.9082 50.7445H53.9172H53.9445C53.9976 50.381 54.0592 50.3709 53.8093 50.1984C53.7922 49.9397 53.835 49.7148 53.8076 49.419C53.7032 48.3115 53.2958 48.041 53.6227 47.7739C54.0233 47.4475 54.2236 47.0012 54.2629 46.3959C54.2937 45.9225 54.2475 45.3206 54.2081 44.8438C54.0866 44.996 53.9617 45.7585 53.8727 46.0324C53.6741 46.6411 53.9069 46.7019 53.2017 46.871C53.2633 46.7543 53.3882 46.7357 53.366 46.614C53.3437 46.4923 53.2462 46.4686 53.2616 46.2674C53.2855 45.9495 53.5217 45.9529 53.7032 45.8109C53.8641 45.6858 53.8675 45.3645 53.9137 45.1346C53.9617 44.8962 54.0301 44.673 54.126 44.4617C54.227 44.2402 54.3588 44.0644 54.5026 43.9494C55.0263 43.5284 55.533 43.2494 55.7025 42.4683C55.6494 42.5106 55.6357 42.5173 55.5929 42.5833L55.7179 42.1065C55.6836 42.0929 55.7264 42.1268 55.6888 42.0946C55.7367 41.9932 55.7367 41.9103 55.8 41.8021C55.8548 41.7041 55.937 41.6635 55.9781 41.5806C55.8309 41.606 55.7915 41.7328 55.7025 41.819C55.7196 41.4691 55.9164 41.5316 56.1013 41.4014L55.8154 41.4234C55.8531 41.2949 55.9969 41.3067 56.079 41.234C56.038 41.2239 56.014 41.2222 55.9661 41.2053L55.8856 41.1647C55.8822 41.1546 55.8719 41.1563 55.8668 41.1512C56.0551 41.092 55.9695 41.1106 56.1715 41.1174C56.1441 41.0599 55.9952 41.0159 56.0927 40.8773C56.1578 40.7843 56.2708 40.8469 56.3495 40.8773C56.3221 40.6473 56.3273 40.6507 56.4984 40.5476L56.5275 40.7657C56.5977 40.5104 56.62 40.3954 56.9058 40.3346C56.8459 40.3971 56.774 40.4377 56.7843 40.5611C56.7894 40.3244 57.5066 40.1689 57.7856 40.4022C57.7856 40.4428 57.7856 40.4208 57.7137 40.4597C57.914 40.4969 57.9927 40.6304 57.991 40.8553L57.8918 40.6947C57.938 40.9365 57.9363 40.9635 57.7942 41.0903C57.7172 41.0565 57.7565 41.0633 57.6881 41.0176C57.5682 40.9382 57.6401 40.9855 57.5563 40.9821L57.4912 40.9889C57.1643 41.1292 57.4998 42.4497 58.0818 42.6492C59.0694 42.9857 59.4871 41.1224 59.2098 40.9787C59.1499 40.9483 59.1156 40.9906 59.0591 41.0024C58.941 41.0261 58.9616 41.0633 58.864 41.1072C58.7082 40.9483 58.7853 40.8384 58.8469 40.6507C58.7716 40.6879 58.7476 40.7319 58.71 40.8181C58.7014 40.5899 58.8726 40.4005 59.0711 40.3396C59.3501 40.2551 59.5436 40.3548 59.7609 40.4546C59.7199 40.3667 59.7113 40.3988 59.6428 40.321C59.8157 40.3515 59.8551 40.3802 59.8962 40.5358L59.927 40.3836C60.0879 40.5036 60.016 40.436 60.0947 40.6321C60.2419 40.5713 60.3772 40.6355 60.4354 40.7437C60.3395 40.7877 60.3309 40.7437 60.2659 40.8452C60.4918 40.7674 60.6408 40.8925 60.7127 41.043C60.6408 41.0041 60.5809 40.9601 60.4559 40.9601C60.6904 41.2425 60.7811 41.2645 60.7589 41.7294L60.6082 41.4048V41.5654L60.5244 41.4099C60.5483 41.7971 60.9985 42.4886 61.0002 42.5731C60.9951 42.5139 60.8496 42.3651 60.7691 42.3127C60.853 42.5359 61.0173 42.7675 61.1457 42.9366C61.2741 43.1074 61.4864 43.3187 61.5685 43.4929C61.4333 43.3204 61.2382 43.2545 61.0875 43.104C61.1782 43.3255 61.4538 43.4912 61.5719 43.7228L61.4727 43.6569C61.5668 43.99 62.4021 44.5073 62.7051 43.9071C62.575 43.9578 62.4843 44.0119 62.3148 44.0153C62.5493 43.9545 62.6931 43.7279 62.7718 43.5132C62.688 43.6653 62.6041 43.7989 62.45 43.8598C62.6041 43.733 62.664 43.4422 62.7 43.1632L62.5801 43.3627C62.5493 43.4236 62.5339 43.4591 62.4877 43.5233C62.4569 43.3407 62.563 43.1547 62.5408 42.94C62.5545 43.1497 62.3388 43.3881 62.1094 43.3897C62.2703 43.3018 62.3114 43.2325 62.3217 43.0178C62.2926 43.077 62.2772 43.0803 62.2292 43.1125L62.2652 42.4734C62.2652 42.4734 62.1693 42.7151 62.1676 42.7202C62.07 42.5139 62.183 42.2062 62.2412 42.0355L62.1436 42.1268C62.1351 41.7666 62.3182 41.5959 62.5236 41.442C62.3799 41.4623 62.3764 41.5147 62.2549 41.5384C62.3011 41.3389 62.4466 41.2983 62.6092 41.207C62.551 41.1089 62.4603 41.065 62.409 40.9043C62.6178 40.9652 62.8626 40.9973 63.0218 40.8671C62.7924 40.8519 62.676 40.8452 62.5973 40.6524C62.7684 40.7015 62.7873 40.6862 62.9584 40.6609C62.9122 40.5848 62.8968 40.5932 62.8797 40.5002C62.9636 40.6135 63.2357 40.5814 63.4257 40.5713L63.3008 40.4817C63.7664 40.4884 63.9529 40.5425 64.0882 40.9026C63.9855 40.8655 63.8382 40.7911 63.7116 40.8536C63.8964 40.9297 63.8554 40.8739 64.0368 40.9973C64.107 41.0447 64.1173 41.0396 64.1909 41.07C64.2833 41.1089 64.2491 41.0886 64.2662 41.1461C64.5092 41.141 64.9577 41.1749 65.17 41.2611C65.3771 41.3456 65.4883 41.6686 65.5123 41.9323C65.4079 42.0016 65.4336 41.9611 65.3582 42.071C65.1391 42.0794 65.0964 41.9864 64.8944 41.9442C64.9235 43.9105 65.223 45.7365 64.742 47.6521C64.6051 48.1982 64.2354 49.2245 63.6277 49.424C63.4651 49.4781 63.4805 49.5762 63.3795 49.7334C63.1946 50.0209 63.02 50.1477 62.8574 50.2085C62.6075 50.3218 61.2142 50.6262 60.8838 50.6312C60.8342 50.616 60.841 50.6025 60.8838 50.589C61.4846 50.5822 62.284 50.3252 62.8232 50.0817C63.068 49.9583 63.2665 49.7115 63.3624 49.4545C63.169 49.3446 63.0526 49.3091 62.9927 49.0216C62.8797 48.4721 63.3555 47.9852 63.5473 48.6125C63.626 48.8661 63.5918 49.0656 63.5678 49.3108C64.0967 49.1315 64.4733 48.1999 64.6308 47.5152C65.0467 45.7095 64.8464 43.7769 64.7609 41.9408C64.3552 42.0321 64.4082 42.2062 63.9375 42.1031C63.9974 42.2113 64.2165 42.2772 64.3364 42.3685L64.0796 42.3601L64.1583 42.4514C64.309 42.5849 64.463 42.6746 64.5657 42.8588C64.4545 42.7439 64.196 42.5647 63.9718 42.5089C64.0556 42.612 64.1686 42.6272 64.2388 42.7473L63.9889 42.7134C64.3278 42.8724 64.6804 43.1446 64.7129 43.5605C64.6239 43.4354 64.5041 43.0854 64.0402 43.0651C64.3603 43.2731 64.5846 43.3796 64.677 43.8564C64.5657 43.6789 64.4271 43.5013 64.2388 43.4269C64.4288 43.662 64.6291 43.8851 64.5743 44.345L64.4134 44.066C64.499 44.3213 64.5383 44.4329 64.5075 44.7491C64.4339 44.6375 64.4288 44.4245 64.3518 44.3129C64.4237 45.1329 64.297 44.7626 64.2456 45.2563C64.2097 45.5979 64.0659 45.8701 63.8673 45.9867C63.9752 45.7297 64.107 45.5624 64.1292 45.2259C64.1036 45.2614 64.1327 45.209 64.0916 45.2885C63.9923 45.4846 63.9153 45.6925 63.7612 45.8481L63.7732 45.6131C63.7099 45.6925 63.6996 45.838 63.6842 45.9445C63.6705 46.0459 63.6517 46.1676 63.6191 46.264C63.561 46.4365 63.4206 46.6512 63.2819 46.7104C63.3538 46.5362 63.4582 46.3029 63.4052 46.073C63.2871 46.4094 63.2272 46.6208 62.9379 46.7493L63.068 46.215C62.9447 46.2742 62.7873 46.4585 62.8506 46.6952C62.8865 46.8287 63.0765 46.9758 63.2169 47.0282C62.9225 47.0401 62.6589 46.8338 62.5322 46.7087C62.5647 46.8304 62.6914 46.9758 62.7787 47.0316C62.5853 46.986 62.3354 46.6715 62.3114 46.5329C62.3097 46.5227 62.3045 46.521 62.2994 46.5142C62.3063 46.7526 62.4038 46.9437 62.5185 47.057C62.2395 46.9234 62.0033 46.6512 62.0136 46.3114C61.9126 46.5007 62.0187 46.7493 62.0683 46.9166C61.9793 46.7628 61.8509 46.8287 61.7346 46.3131C61.726 46.2742 61.726 46.2792 61.714 46.2454C61.7123 46.2403 61.7055 46.2353 61.7037 46.2234C61.7037 46.2116 61.6969 46.2082 61.6952 46.2015L61.6421 46.4094C61.6147 46.3722 61.6421 46.4348 61.6096 46.3486C61.5925 46.3012 61.6045 46.3401 61.5976 46.3046C61.5908 46.2759 61.5891 46.2133 61.5891 46.1829C61.5891 46.0983 61.5959 46.0392 61.601 45.958C61.423 46.2048 61.5291 46.4551 61.6096 46.7087C61.4795 46.6056 61.3409 46.3942 61.2262 46.242C61.2416 46.5362 61.4504 46.915 61.3152 47.1804L61.2553 46.9065C61.1971 47.74 61.1354 47.3884 61.0379 47.713L61.0533 47.3867C61.031 47.4205 61.0464 47.3867 61.0208 47.4526C60.9814 47.5558 60.9557 47.6809 60.8924 47.7705C60.8102 47.8855 60.7537 47.9429 60.586 47.9937C60.5757 48.462 60.4662 48.3791 60.3395 48.6649C60.2556 48.8559 60.2282 49.2228 60.2231 49.446C60.218 49.6827 60.2163 49.7182 60.218 49.7351L60.2471 49.7571ZM59.4888 49.9685C59.4854 50.0276 59.4888 50.0665 59.5607 50.1409C59.624 50.2085 59.6856 50.239 59.7695 50.2948L59.8756 50.3945C59.8893 50.3269 59.9475 50.2897 59.9492 50.1122C59.9492 49.8924 59.8191 49.9837 59.8517 49.7571C59.8756 49.6303 59.9201 49.5069 59.9407 49.3666C59.9886 49.0453 60.0194 48.7985 59.9595 48.4891C59.8927 48.533 59.7764 48.7258 59.713 48.8086C59.5436 49.0318 59.4939 49.4325 59.4991 49.7165C59.5025 49.8991 59.4939 49.9093 59.4905 49.9668L59.4888 49.9685ZM63.4257 49.331C63.5592 49.1062 63.5045 48.5584 63.2888 48.4806C63.0628 48.6767 63.0885 49.2837 63.4257 49.331Z" fill="#131316"/>
<path fill-rule="evenodd" clip-rule="evenodd" d="M40.7199 41.2374C40.7199 41.2374 40.6993 41.1596 40.6976 41.1546C40.3998 40.3548 40.0215 40.671 39.4429 40.5459C39.2067 40.4952 39.2547 40.5189 39.1314 40.3785C38.9637 40.1875 38.6881 40.2078 38.4536 40.1131C38.3851 40.108 38.4193 40.1587 38.3201 40.1892C38.279 40.2027 38.1232 40.2247 38.0102 40.3295C37.9401 40.3954 38.0856 40.3261 37.9503 40.387L38.0856 40.4106C38.0222 40.4563 37.7364 40.556 37.5686 40.671L37.697 40.7302C37.5857 40.8299 37.4796 40.9601 37.4009 41.0819C37.5121 41.0667 37.5156 41.0075 37.6285 40.994C37.584 41.0109 37.3838 41.2493 37.3649 41.3135C37.3102 41.5046 37.4847 41.2273 37.3684 41.4521C37.3238 41.5401 37.2845 41.5908 37.2828 41.6973C37.3701 41.6195 37.3238 41.6178 37.4231 41.5604C37.3547 41.7345 37.2982 41.8326 37.293 42.0557C37.3375 42.0067 37.4009 41.9154 37.4488 41.8698L37.4317 42.2197C37.4505 42.213 37.4591 42.2062 37.4625 42.2011C37.4659 42.2045 37.4693 42.2062 37.4745 42.2113C37.43 42.3482 37.4351 42.5258 37.4762 42.656C37.5429 42.5697 37.5002 42.519 37.5977 42.4243C37.5926 42.5883 37.5515 42.82 37.5977 42.8859L37.6936 42.705L37.6559 43.0888C37.6679 43.0837 37.6747 43.0634 37.6782 43.0685C37.6799 43.0736 37.6884 43.0533 37.6919 43.0482L37.762 42.9349C37.7552 43.2798 37.7312 43.2765 37.5977 43.4929C37.6542 43.4709 37.6782 43.4405 37.7347 43.4709C37.2828 43.6941 36.7932 43.5182 36.4783 43.2562C36.1719 43.0009 35.8723 42.7726 35.672 42.3736C35.518 42.0659 35.2732 41.5181 35.1859 41.1782C35.0781 40.7572 35.0798 40.3599 34.3369 40.3143V40.3785C34.0237 40.4478 33.9329 40.5425 33.8799 40.8722C33.9792 40.9229 33.8713 40.8773 33.9501 41.2323C33.9586 41.229 33.9638 41.2273 33.9689 41.2273C33.9723 41.2205 33.9774 41.2104 33.9843 41.1968C33.9929 41.1833 34.0065 41.141 34.0185 41.1191C34.0853 41.5164 34.2565 41.7548 34.0391 42.1995C33.9141 42.4565 33.6556 42.7354 33.2602 42.727C32.5191 42.7118 32.1819 41.8393 32.5071 41.1326L32.5208 41.3287C32.6646 41.1292 32.567 41.0345 32.6474 40.8824C32.7416 40.7082 32.579 40.4123 32.2127 40.3887C32.1322 40.2771 32.2572 40.4259 32.2127 40.3126C31.7368 40.3396 31.4835 40.5138 31.3602 40.8959C31.2079 41.3676 30.857 41.2695 30.8245 41.8089C30.8296 41.8021 30.8365 41.7852 30.8382 41.7903C30.8399 41.7954 30.8484 41.7768 30.8519 41.7717C30.9272 41.6635 30.9374 41.6229 31.0761 41.5536C30.7457 41.9932 30.7988 42.5562 30.4701 43.0093C30.0011 43.6569 29.3781 43.6383 29.2702 44.9249C29.2463 45.2174 29.2463 45.581 29.0237 45.7162C28.9142 45.7839 28.4914 45.8667 28.5479 46.2556C28.5907 46.5464 28.9929 46.6225 28.5547 46.8811C29.1607 46.8575 28.9399 46.3621 29.1487 45.9529C29.5492 45.165 29.3336 45.0687 29.5253 44.7779C29.5629 44.8438 29.5681 45.0146 29.5766 45.094C29.6656 45.9157 29.7341 46.6427 29.2137 47.3562C29.1042 47.5084 28.8971 47.6318 28.9193 47.8584C28.945 48.1238 29.111 48.2676 29.1624 49.2009C29.1949 49.7723 29.1333 49.5897 29.0477 49.867C29.07 50.053 29.1932 49.9837 29.2018 50.1494C29.2052 50.2069 29.1812 50.2576 29.1761 50.3269L29.135 50.5027C29.135 50.5027 29.1265 50.5196 29.1196 50.5264C29.123 50.5315 29.1316 50.5315 29.1333 50.5382C29.1607 50.6346 29.9258 50.6498 30.0884 50.5771C30.0354 50.3404 29.8522 50.2846 29.6776 50.1663C29.5595 50.0885 29.5492 50.0817 29.539 49.9008C29.5321 49.7605 29.4876 49.6996 29.4637 49.5525C29.3336 49.3429 29.4294 48.4028 29.5184 48.1594C29.6485 47.8043 29.8882 47.4695 30.0508 47.1348C30.0816 47.5862 29.8471 48.0816 29.8933 48.1712C30.0765 48.3301 30.2391 48.4434 30.3897 48.6514C30.4719 48.763 30.7252 49.1654 30.7611 49.2854C30.8433 49.3632 30.9563 49.6049 30.9854 49.7419C31.0778 50.1849 31.0436 49.911 31.2507 50.1494C31.2627 50.3269 31.1822 50.3675 31.2404 50.5399C31.338 50.6329 31.528 50.6228 31.7026 50.6245C31.7967 50.6245 31.8926 50.6228 31.985 50.6177C32.098 50.6109 32.1647 50.6177 32.2024 50.545C32.1168 50.2728 31.8292 50.2018 31.6187 50.0361C31.4783 49.9245 31.261 49.5593 31.1685 49.3513C31.0538 49.2076 30.7937 48.6463 30.7235 48.4333C30.59 48.0292 30.59 47.6285 30.6242 47.1872C30.6636 46.6901 30.8074 46.5312 30.9306 46.1169C31.0179 45.8295 31.1103 45.2445 31.1531 44.9368C31.4955 45.1447 31.593 45.4372 32.502 45.9225C33.1986 46.2961 33.6437 46.2387 34.4396 46.0899C34.4054 46.7171 34.4773 47.1838 34.3198 47.7891C34.265 47.9954 34.3831 48.325 34.3831 48.5854C34.3831 48.8661 34.3455 49.1501 34.3198 49.4139C34.289 49.495 34.2479 49.5914 34.2239 49.6776C34.1674 49.8772 34.2154 49.8332 34.2582 49.9803C34.3455 50.288 34.0733 50.239 34.2188 50.5721C34.4875 50.6718 34.835 50.665 35.1483 50.6228C35.1517 50.4503 34.8693 50.2863 34.7477 50.1933C34.6553 50.124 34.6125 50.0327 34.6279 49.9093C34.6536 49.6979 34.657 49.7571 34.6159 49.5339C34.556 49.3395 34.5971 48.9506 34.6313 48.7359C34.6827 48.4231 34.7597 48.3555 34.8778 48.1137C35.0028 47.8618 34.8299 47.4712 35.2338 46.7188C35.2903 46.9386 35.3263 47.1449 35.3674 47.3698C35.4187 47.6437 35.3554 47.9041 35.4324 48.1188C35.5967 48.5804 35.6994 48.9236 35.6549 49.468C35.518 49.9482 35.7217 49.752 35.72 50.0378C35.72 50.359 35.5385 50.2288 35.6977 50.5568C35.9117 50.6735 36.3293 50.6397 36.5998 50.5923L36.5775 50.4368L36.3687 50.2407C36.278 50.1781 36.2112 50.146 36.1428 50.0733C36.0281 49.9499 36.076 49.916 36.0657 49.7605C36.0589 49.6405 36.0093 49.5407 35.963 49.4342C35.7046 48.5246 35.9938 47.997 35.9853 47.8043C35.975 47.6065 35.9185 47.4847 35.9254 47.2447L36.0538 45.843C36.0846 45.7331 36.1205 45.75 36.2061 45.679C36.3293 45.5776 36.4338 45.4542 36.545 45.3645C36.4971 45.5201 36.4286 45.5725 36.3602 45.7095C36.5108 45.657 36.5262 45.5911 36.634 45.5285C36.6203 45.5928 36.5964 45.6723 36.569 45.7281C36.5108 45.843 36.5176 45.7788 36.4577 45.8718L36.5724 45.865C36.5262 46.0341 36.4526 46.078 36.2592 46.073C36.5382 46.3266 36.7076 46.1186 36.8856 45.9563C36.8993 46.1643 36.8771 46.2116 36.7795 46.3181C36.9147 46.3147 36.9695 46.2978 37.0654 46.2167L37.151 46.1423C37.1373 46.308 37.1099 46.3621 37.0517 46.4957C37.2588 46.4787 37.3889 46.3672 37.4967 46.2218L37.5977 46.073C37.6696 46.2539 37.6268 46.4365 37.5652 46.5751C37.7894 46.5058 37.8887 46.3283 37.9794 46.1913C38.0325 46.1119 37.9709 46.1609 38.0462 46.1152C38.0684 46.335 38.0667 46.3824 37.9794 46.5362C38.1729 46.5007 38.3235 46.2708 38.3834 46.1152C38.3988 46.073 38.4039 46.0493 38.4176 46.0087L38.4758 45.8887L38.4912 46.166C38.5015 46.1406 38.7394 45.5928 38.76 45.559L38.7155 45.9563C38.9808 45.6841 39.039 45.4592 39.0356 44.9672L39.1006 45.094C39.1109 45.1312 39.1246 45.2191 39.128 45.2597C39.14 45.3764 39.1348 45.4812 39.1126 45.5843C39.5131 45.0856 39.3043 44.8404 39.3437 44.6257C39.4258 44.7762 39.4156 44.9114 39.4258 45.1076C39.5217 44.766 39.6484 44.9672 39.5285 44.3399L39.621 44.4126L39.5234 44.0289C39.5987 44.0711 39.5662 44.0677 39.6364 44.1202L39.5354 43.8023C39.5765 43.782 39.5302 43.8074 39.6347 43.8412C39.6175 43.4794 39.4549 43.0601 39.4823 42.9248C39.496 42.8572 39.5183 42.9163 39.4909 42.8301C39.4618 42.7371 39.3693 42.6103 39.3266 42.5444L39.3967 42.5308L39.2581 42.2316C39.3488 42.1825 39.2153 42.3009 39.3437 42.2367C39.3334 42.2147 39.1109 41.8444 39.1554 41.7328C39.193 41.6415 40.0249 41.3744 40.1191 41.3608L40.3433 41.4657C40.3433 41.4454 40.3467 41.4251 40.3484 41.4065L40.5966 41.4251C40.6035 41.4082 40.636 41.3507 40.636 41.3507L40.6959 41.3C40.7199 41.2729 40.725 41.2983 40.7267 41.3C40.7267 41.3 40.7267 41.2865 40.7267 41.2391L40.7199 41.2374ZM33.9672 41.2188C33.9501 41.2611 34.0031 41.2137 33.9672 41.2188V41.2188Z" fill="#131316"/>
</g>
<defs>
<clipPath id="clip0_17_1314">
<rect width="100" height="64" fill="white"/>
</clipPath>
</defs>
</svg>
